<svg class="icon-lock" xmlns="http://www.w3.org/2000/svg" width="38" height="55" viewBox="0 0 38 55"><path d="M19.023 0c-2.95 0-5.928 1.003-8.207 3.082-2.279 2.079-3.77 5.258-3.77 9.158 0 2.833-.105 5.789 0 10.76l3.998-.084c-.103-4.881.002-7.746.002-10.676 0-2.926 1.003-4.869 2.465-6.203 1.462-1.334 3.474-2.037 5.512-2.037 2.038 0 4.05.703 5.512 2.037 1.462 1.334 2.465 3.277 2.465 6.203v10.717h4v-10.717c0-3.9-1.49-7.079-3.77-9.158-2.279-2.079-5.257-3.082-8.207-3.082zm-11.977 23h-7.047v32h38v-32h-30.953zm11.953 7a4 4 0 0 1 4 4 4 4 0 0 1-2 3.459v9.947a2 2.527 0 0 1-4 0v-9.947a4 4 0 0 1-2-3.459 4 4 0 0 1 4-4z"/></svg>