<svg xmlns="http://www.w3.org/2000/svg" viewBox="0 0 16 16"><path d="M2 14h14v2h-16v-16h2zm2.5-1c-.828 0-1.5-.672-1.5-1.5s.672-1.5 1.5-1.5l.131.006 1.612-2.687c-.154-.235-.243-.517-.243-.819 0-.828.672-1.5 1.5-1.5s1.5.672 1.5 1.5c0 .302-.09.583-.243.819l1.612 2.687.131-.006.099.004 2.662-4.658c-.165-.241-.261-.532-.261-.845 0-.828.672-1.5 1.5-1.5s1.5.672 1.5 1.5-.672 1.5-1.5 1.5l-.099-.004-2.662 4.658c.165.241.261.532.261.845 0 .828-.672 1.5-1.5 1.5s-1.5-.672-1.5-1.5c0-.302.09-.583.243-.819l-1.612-2.687-.131.006-.131-.006-1.612 2.687c.154.235.243.517.243.819 0 .828-.672 1.5-1.5 1.5z" fill="#fff"/></svg>